<svg xmlns="http://www.w3.org/2000/svg" viewBox="0 0 1200 630" role="img" aria-label="DealBazaar social preview">
  <defs>
    <linearGradient id="bg" x1="0%" y1="0%" x2="100%" y2="100%">
      <stop offset="0%" stop-color="#0c0f12" />
      <stop offset="100%" stop-color="#171c22" />
    </linearGradient>
    <radialGradient id="glowLeft" cx="0%" cy="0%" r="90%">
      <stop offset="0%" stop-color="#31424f" stop-opacity="0.7" />
      <stop offset="100%" stop-color="#31424f" stop-opacity="0" />
    </radialGradient>
    <radialGradient id="glowRight" cx="100%" cy="0%" r="80%">
      <stop offset="0%" stop-color="#8d6840" stop-opacity="0.38" />
      <stop offset="100%" stop-color="#8d6840" stop-opacity="0" />
    </radialGradient>
  </defs>
  <rect width="1200" height="630" rx="36" fill="url(#bg)" />
  <rect width="1200" height="630" rx="36" fill="url(#glowLeft)" />
  <rect width="1200" height="630" rx="36" fill="url(#glowRight)" />
  <g opacity="0.045">
    <path d="M0 70H1200M0 140H1200M0 210H1200M0 280H1200M0 350H1200M0 420H1200M0 490H1200M0 560H1200" stroke="#bac3cc" />
    <path d="M70 0V630M140 0V630M210 0V630M280 0V630M350 0V630M420 0V630M490 0V630M560 0V630M630 0V630M700 0V630M770 0V630M840 0V630M910 0V630M980 0V630M1050 0V630M1120 0V630" stroke="#bac3cc" />
  </g>
  <g transform="translate(96 96)">
    <rect width="84" height="84" rx="24" fill="#11151a" stroke="rgba(255,255,255,0.08)" />
    <g transform="translate(14 14)" fill="none" stroke-linecap="round" stroke-linejoin="round" stroke-width="4.5">
      <path d="M6 8v28h8.5c7.5 0 12.5-5.7 12.5-14S22 8 14.5 8H6Z" stroke="#f4f1eb" />
      <path d="M29.8 8v28" stroke="#d6b18a" />
      <path d="M27.2 6.6v30.8" stroke="#11151a" stroke-width="2.2" />
      <path d="M29.8 8H36c4.8 0 7.8 2.8 7.8 6.6 0 3.7-3 6.2-7.8 6.2h-6.2" stroke="#d6b18a" />
      <path d="M29.8 20.8h6.8c5 0 8.2 2.8 8.2 7S41.6 36 36.2 36h-6.4" stroke="#d6b18a" />
    </g>
  </g>
  <text x="206" y="145" fill="#f4f6f8" font-family="Inter, Arial, sans-serif" font-size="34" font-weight="700">DealBazaar</text>
  <text x="96" y="276" fill="#f4f6f8" font-family="Inter, Arial, sans-serif" font-size="86" font-weight="700" letter-spacing="-3">
    Verified local deals,
  </text>
  <text x="96" y="366" fill="#f4f6f8" font-family="Inter, Arial, sans-serif" font-size="86" font-weight="700" letter-spacing="-3">
    without marketplace clutter.
  </text>
  <text x="96" y="440" fill="#aeb6bf" font-family="Inter, Arial, sans-serif" font-size="30" font-weight="500">
    Real stores only. Moderated listings. Time-limited offers.
  </text>
  <g transform="translate(96 494)">
    <rect width="220" height="54" rx="18" fill="#f4f6f8" />
    <text x="110" y="27" fill="#14171a" font-family="Inter, Arial, sans-serif" font-size="24" font-weight="700" text-anchor="middle" dominant-baseline="middle">Explore deals</text>
  </g>
  <g transform="translate(348 494)">
    <rect width="306" height="54" rx="18" fill="rgba(255,255,255,0.05)" stroke="rgba(255,255,255,0.12)" />
    <text x="153" y="27" fill="#f4f6f8" font-family="Inter, Arial, sans-serif" font-size="24" font-weight="600" text-anchor="middle" dominant-baseline="middle">Start selling locally</text>
  </g>
</svg>
