<svg xmlns="http://www.w3.org/2000/svg" viewBox="0 0 1200 630" role="img" aria-label="DealGrab social preview">
  <defs>
    <linearGradient id="bg" x1="0%" y1="0%" x2="100%" y2="100%">
      <stop offset="0%" stop-color="#0c0f12" />
      <stop offset="100%" stop-color="#171c22" />
    </linearGradient>
    <radialGradient id="glowLeft" cx="0%" cy="0%" r="90%">
      <stop offset="0%" stop-color="#31424f" stop-opacity="0.7" />
      <stop offset="100%" stop-color="#31424f" stop-opacity="0" />
    </radialGradient>
    <radialGradient id="glowRight" cx="100%" cy="0%" r="80%">
      <stop offset="0%" stop-color="#8d6840" stop-opacity="0.38" />
      <stop offset="100%" stop-color="#8d6840" stop-opacity="0" />
    </radialGradient>
  </defs>
  <rect width="1200" height="630" rx="36" fill="url(#bg)" />
  <rect width="1200" height="630" rx="36" fill="url(#glowLeft)" />
  <rect width="1200" height="630" rx="36" fill="url(#glowRight)" />
  <g opacity="0.045">
    <path d="M0 70H1200M0 140H1200M0 210H1200M0 280H1200M0 350H1200M0 420H1200M0 490H1200M0 560H1200" stroke="#bac3cc" />
    <path d="M70 0V630M140 0V630M210 0V630M280 0V630M350 0V630M420 0V630M490 0V630M560 0V630M630 0V630M700 0V630M770 0V630M840 0V630M910 0V630M980 0V630M1050 0V630M1120 0V630" stroke="#bac3cc" />
  </g>
  <g transform="translate(96 96)">
    <rect width="84" height="84" rx="24" fill="#11151a" stroke="rgba(255,255,255,0.08)" />
    <rect x="12" y="12" width="60" height="60" rx="20" fill="#0f241f" stroke="#2b413b" />
    <text x="42" y="51" text-anchor="middle" fill="#f4f1eb" font-family="Georgia, serif" font-size="28" font-weight="700">DG</text>
  </g>
  <text x="206" y="145" fill="#f4f6f8" font-family="Inter, Arial, sans-serif" font-size="34" font-weight="700">DealGrab</text>
  <text x="96" y="276" fill="#f4f6f8" font-family="Inter, Arial, sans-serif" font-size="86" font-weight="700" letter-spacing="-3">
    Verified local deals,
  </text>
  <text x="96" y="366" fill="#f4f6f8" font-family="Inter, Arial, sans-serif" font-size="86" font-weight="700" letter-spacing="-3">
    without marketplace clutter.
  </text>
  <text x="96" y="440" fill="#aeb6bf" font-family="Inter, Arial, sans-serif" font-size="30" font-weight="500">
    Real stores only. Moderated listings. Time-limited offers.
  </text>
  <g transform="translate(96 494)">
    <rect width="220" height="54" rx="18" fill="#f4f6f8" />
    <text x="110" y="27" fill="#14171a" font-family="Inter, Arial, sans-serif" font-size="24" font-weight="700" text-anchor="middle" dominant-baseline="middle">Explore deals</text>
  </g>
  <g transform="translate(348 494)">
    <rect width="306" height="54" rx="18" fill="rgba(255,255,255,0.05)" stroke="rgba(255,255,255,0.12)" />
    <text x="153" y="27" fill="#f4f6f8" font-family="Inter, Arial, sans-serif" font-size="24" font-weight="600" text-anchor="middle" dominant-baseline="middle">Start selling locally</text>
  </g>
</svg>
